<?xml version="1.0" standalone="no"?>
<!DOCTYPE svg PUBLIC "-//W3C//DTD SVG 20010904//EN"
 "http://www.w3.org/TR/2001/REC-SVG-20010904/DTD/svg10.dtd">
<svg version="1.0" xmlns="http://www.w3.org/2000/svg"
 width="512.000000pt" height="512.000000pt" viewBox="0 0 512.000000 512.000000"
 preserveAspectRatio="xMidYMid meet">

<g transform="translate(0.000000,512.000000) scale(0.100000,-0.100000)"
fill="#000000" stroke="none">
<path d="M441 4784 c-169 -45 -301 -180 -346 -351 -23 -87 -22 -2220 0 -2308
49 -187 205 -328 395 -358 l70 -11 0 -293 0 -294 25 -24 c16 -16 35 -25 57
-25 29 0 59 27 295 262 l263 262 0 -130 c0 -147 14 -216 61 -305 62 -115 197
-214 328 -239 34 -6 441 -10 1135 -10 l1081 0 320 -320 c290 -289 324 -320
353 -320 22 0 41 9 57 25 l25 24 0 294 0 293 72 12 c196 30 361 188 398 381
14 74 14 2188 0 2262 -25 131 -124 266 -239 328 -108 57 -140 61 -523 61
l-348 0 0 179 c0 98 -5 202 -10 232 -34 177 -177 327 -355 374 -87 22 -3030
22 -3114 -1z m3147 -183 c70 -38 100 -69 140 -145 l27 -51 0 -1125 0 -1125
-27 -51 c-40 -76 -70 -107 -140 -145 l-63 -34 -1142 -5 -1143 -5 -260 -260
-260 -260 0 236 c0 296 8 281 -142 290 -156 10 -236 56 -299 171 l-34 63 0
1125 0 1125 27 51 c15 28 38 64 52 81 27 32 113 82 160 94 17 4 708 6 1536 6
l1505 -2 63 -34z m1120 -800 c70 -38 100 -69 140 -145 l27 -51 0 -1125 0
-1125 -34 -63 c-63 -115 -143 -161 -299 -171 -150 -9 -142 6 -142 -290 l0
-236 -260 260 -260 260 -1143 5 -1142 5 -51 27 c-76 40 -107 70 -145 140 l-34
63 -3 203 -4 202 1060 0 c663 0 1079 4 1113 10 183 34 344 195 379 379 6 34
10 358 10 873 l0 819 363 -3 362 -3 63 -34z"/>
<path d="M1120 3587 c-19 -6 -58 -34 -85 -62 -71 -70 -91 -145 -63 -239 16
-55 99 -138 154 -154 94 -28 169 -8 239 63 102 101 102 229 0 330 -70 71 -152
91 -245 62z m135 -172 c50 -49 15 -135 -55 -135 -41 0 -80 39 -80 80 0 41 39
80 80 80 19 0 40 -9 55 -25z"/>
<path d="M1920 3587 c-49 -16 -133 -102 -148 -153 -28 -94 -8 -169 63 -239 51
-52 102 -75 165 -75 63 0 114 23 165 75 102 101 102 229 0 330 -70 71 -152 91
-245 62z m135 -172 c50 -49 15 -135 -55 -135 -41 0 -80 39 -80 80 0 41 39 80
80 80 19 0 40 -9 55 -25z"/>
<path d="M2720 3587 c-49 -16 -133 -102 -148 -153 -28 -94 -8 -169 63 -239 51
-52 102 -75 165 -75 124 0 240 116 240 240 0 63 -23 114 -75 165 -70 71 -152
91 -245 62z m135 -172 c16 -15 25 -36 25 -55 0 -19 -9 -40 -25 -55 -15 -16
-36 -25 -55 -25 -19 0 -40 9 -55 25 -16 15 -25 36 -25 55 0 19 9 40 25 55 15
16 36 25 55 25 19 0 40 -9 55 -25z"/>
</g>
</svg>
